<?xml version="1.0" encoding="UTF-8"?>
<!DOCTYPE svg PUBLIC "-//W3C//DTD SVG 1.1//EN" "http://www.w3.org/Graphics/SVG/1.1/DTD/svg11.dtd">
<svg xmlns="http://www.w3.org/2000/svg" version="1.1" width="488px" height="515px" style="shape-rendering:geometricPrecision; text-rendering:geometricPrecision; image-rendering:optimizeQuality; fill-rule:evenodd; clip-rule:evenodd" xmlns:xlink="http://www.w3.org/1999/xlink">
<g><path style="opacity:1" fill="#f9f9f9" d="M -0.5,-0.5 C 162.167,-0.5 324.833,-0.5 487.5,-0.5C 487.5,171.167 487.5,342.833 487.5,514.5C 324.833,514.5 162.167,514.5 -0.5,514.5C -0.5,342.833 -0.5,171.167 -0.5,-0.5 Z"/></g>
<g><path style="opacity:1" fill="#f6f6eb" d="M 272.5,156.5 C 272.833,157.5 273.5,158.167 274.5,158.5C 276.248,160.16 276.748,162.16 276,164.5C 270.177,178.818 264.677,193.151 259.5,207.5C 258.609,208.11 257.609,208.443 256.5,208.5C 255.833,206.833 255.167,205.167 254.5,203.5C 252.797,193.306 251.964,182.973 252,172.5C 251.467,170.061 250.3,169.395 248.5,170.5C 244.481,164.145 238.814,160.145 231.5,158.5C 227.455,156.823 223.122,156.156 218.5,156.5C 218.5,156.167 218.5,155.833 218.5,155.5C 212.681,154.672 206.681,154.172 200.5,154C 189.951,151.826 189.951,149.159 200.5,146C 203.031,142.809 205.531,139.642 208,136.5C 209.84,137.833 210.34,137.666 209.5,136C 213.165,134.722 216.832,133.556 220.5,132.5C 221.104,127.848 223.77,126.348 228.5,128C 226.624,129.017 224.624,129.851 222.5,130.5C 224.847,131.712 227.347,132.379 230,132.5C 238.133,132.239 246.3,132.073 254.5,132C 256.081,131.293 257.581,130.46 259,129.5C 262.848,132.022 266.681,134.522 270.5,137C 271.26,138.441 271.926,139.941 272.5,141.5C 276.823,144.997 281.156,148.497 285.5,152C 283.699,152.317 283.366,152.984 284.5,154C 280.264,154.335 276.264,155.168 272.5,156.5 Z"/></g>
<g><path style="opacity:1" fill="#f0e7c5" d="M 223.5,135.5 C 225.03,137.847 227.03,138.014 229.5,136C 238.16,135.5 246.827,135.334 255.5,135.5C 264.678,138.137 272.511,143.137 279,150.5C 279.483,151.448 279.649,152.448 279.5,153.5C 277.833,153.5 276.167,153.5 274.5,153.5C 271.954,151.972 269.454,150.305 267,148.5C 266,149.167 265,149.833 264,150.5C 261.199,148.693 258.199,147.36 255,146.5C 254.586,146.957 254.086,147.291 253.5,147.5C 250.286,146.095 246.952,145.095 243.5,144.5C 236.146,145.155 228.812,145.989 221.5,147C 218.097,147.578 214.93,148.745 212,150.5C 210.164,148.088 208.664,148.422 207.5,151.5C 204.946,152.388 202.279,152.721 199.5,152.5C 201.698,148.626 204.698,145.292 208.5,142.5C 212.89,138.757 217.89,136.423 223.5,135.5 Z"/></g>
<g><path style="opacity:1" fill="#e7ddae" d="M 255.5,135.5 C 246.827,135.334 238.16,135.5 229.5,136C 227.03,138.014 225.03,137.847 223.5,135.5C 229.51,133.958 235.677,133.292 242,133.5C 246.886,133.507 251.386,134.174 255.5,135.5 Z"/></g>
<g><path style="opacity:1" fill="#f8f7e2" d="M 274.5,153.5 C 272.298,153.724 269.965,154.057 267.5,154.5C 264.511,152.243 261.178,150.576 257.5,149.5C 255.844,151.022 254.677,150.689 254,148.5C 253.667,148.833 253.333,149.167 253,149.5C 251.601,148.773 250.101,148.273 248.5,148C 241.516,147.659 234.683,147.492 228,147.5C 226.393,147.769 225.226,148.603 224.5,150C 226.421,150.36 228.088,151.194 229.5,152.5C 231.889,152.657 234.389,152.324 237,151.5C 238.059,151.63 238.892,152.13 239.5,153C 245.219,152.872 250.219,153.039 254.5,153.5C 254.833,153.833 255.167,154.167 255.5,154.5C 245.134,158.679 234.134,157.679 222.5,151.5C 217.452,151.785 212.452,151.785 207.5,151.5C 208.664,148.422 210.164,148.088 212,150.5C 214.93,148.745 218.097,147.578 221.5,147C 228.812,145.989 236.146,145.155 243.5,144.5C 246.952,145.095 250.286,146.095 253.5,147.5C 254.086,147.291 254.586,146.957 255,146.5C 258.199,147.36 261.199,148.693 264,150.5C 265,149.833 266,149.167 267,148.5C 269.454,150.305 271.954,151.972 274.5,153.5 Z"/></g>
<g><path style="opacity:1" fill="#4b5261" d="M 218.5,155.5 C 218.5,155.833 218.5,156.167 218.5,156.5C 212.833,156.5 207.167,156.5 201.5,156.5C 200.167,156.5 198.833,156.5 197.5,156.5C 194.302,155.964 191.635,156.631 189.5,158.5C 189.167,158.5 188.833,158.5 188.5,158.5C 188.5,157.5 188.5,156.5 188.5,155.5C 198.5,155.5 208.5,155.5 218.5,155.5 Z"/></g>
<g><path style="opacity:1" fill="#2e3744" d="M 272.5,156.5 C 278.537,156.171 284.537,156.504 290.5,157.5C 288.296,158.206 286.296,159.206 284.5,160.5C 284.5,159.5 284.5,158.5 284.5,157.5C 280.958,157.187 277.625,157.521 274.5,158.5C 273.5,158.167 272.833,157.5 272.5,156.5 Z"/></g>
<g><path style="opacity:1" fill="#f9f9ed" d="M 216.5,159.5 C 219.059,159.198 221.393,159.532 223.5,160.5C 223.414,161.496 223.748,162.329 224.5,163C 229.573,164.116 229.406,165.283 224,166.5C 223.506,168.134 223.34,169.801 223.5,171.5C 224.5,171.5 225.5,171.5 226.5,171.5C 225.721,175.442 225.721,179.775 226.5,184.5C 227.59,186.003 228.757,186.336 230,185.5C 232.31,188.075 233.143,190.909 232.5,194C 234.324,196.152 234.657,198.652 233.5,201.5C 230.956,201.896 228.789,201.229 227,199.5C 227.09,202.105 226.423,204.771 225,207.5C 224.029,208.198 222.863,208.198 221.5,207.5C 219.825,207.868 218.825,208.868 218.5,210.5C 214.833,210.5 211.167,210.5 207.5,210.5C 207.5,193.5 207.5,176.5 207.5,159.5C 210.5,159.5 213.5,159.5 216.5,159.5 Z"/></g>
<g><path style="opacity:1" fill="#142647" d="M 231.5,158.5 C 238.814,160.145 244.481,164.145 248.5,170.5C 249.441,172.05 250.107,173.716 250.5,175.5C 249.5,175.5 248.5,175.5 247.5,175.5C 247.094,172.411 245.76,169.745 243.5,167.5C 241.192,166.052 239.859,166.718 239.5,169.5C 240.453,171.455 241.787,173.122 243.5,174.5C 241.368,176.395 241.034,178.562 242.5,181C 242.167,181.5 241.833,182 241.5,182.5C 240.614,181.675 240.281,180.675 240.5,179.5C 236.241,179.898 234.408,177.898 235,173.5C 233.933,172.809 232.766,172.309 231.5,172C 230.748,171.329 230.414,170.496 230.5,169.5C 234.966,171.07 238.132,174.07 240,178.5C 240.667,177.167 240.667,175.833 240,174.5C 236.975,168.977 232.809,164.644 227.5,161.5C 227.423,160.25 226.756,159.417 225.5,159C 227.473,158.505 229.473,158.338 231.5,158.5 Z"/></g>
<g><path style="opacity:1" fill="#d7e2e7" d="M 223.5,160.5 C 224.833,160.833 226.167,161.167 227.5,161.5C 232.809,164.644 236.975,168.977 240,174.5C 240.667,175.833 240.667,177.167 240,178.5C 238.132,174.07 234.966,171.07 230.5,169.5C 229.341,167.623 227.674,167.123 225.5,168C 226.337,169.011 226.67,170.178 226.5,171.5C 225.5,171.5 224.5,171.5 223.5,171.5C 223.34,169.801 223.506,168.134 224,166.5C 229.406,165.283 229.573,164.116 224.5,163C 223.748,162.329 223.414,161.496 223.5,160.5 Z"/></g>
<g><path style="opacity:1" fill="#efe5c4" d="M 276.5,216.5 C 275.086,218.054 273.419,219.388 271.5,220.5C 270.548,222.045 270.215,223.712 270.5,225.5C 266.116,227.154 261.783,228.987 257.5,231C 253.848,231.499 250.182,231.665 246.5,231.5C 230.786,233.622 217.119,229.455 205.5,219C 206.994,217.054 208.994,216.221 211.5,216.5C 219.686,218.669 228.019,220.003 236.5,220.5C 239.048,220.735 240.714,219.735 241.5,217.5C 243.179,217.892 244.846,218.392 246.5,219C 246.167,219.333 245.833,219.667 245.5,220C 246.942,220.377 247.942,221.21 248.5,222.5C 247.596,223.209 247.263,224.209 247.5,225.5C 239.429,225.137 231.429,225.637 223.5,227C 232.064,228.607 240.73,228.94 249.5,228C 254.091,226.538 258.757,225.372 263.5,224.5C 263.351,223.448 263.517,222.448 264,221.5C 265.556,220.48 266.722,219.147 267.5,217.5C 266.246,215.666 265.579,213.666 265.5,211.5C 267.339,210.492 268.672,208.992 269.5,207C 270.448,206.517 271.448,206.351 272.5,206.5C 272.682,204.409 272.348,202.409 271.5,200.5C 271.833,200.167 272.167,199.833 272.5,199.5C 273.182,200.243 273.849,200.909 274.5,201.5C 272.73,204.443 273.396,206.443 276.5,207.5C 283.009,204.142 284.676,199.142 281.5,192.5C 282.578,189.266 282.578,186.099 281.5,183C 282.448,182.517 283.448,182.351 284.5,182.5C 284.215,184.288 284.548,185.955 285.5,187.5C 286.48,184.914 286.813,182.247 286.5,179.5C 284.5,179.5 282.5,179.5 280.5,179.5C 280.956,184.607 279.956,189.274 277.5,193.5C 277.378,186.325 278.378,179.325 280.5,172.5C 282.031,169.615 284.031,166.948 286.5,164.5C 294.532,184.107 291.199,201.44 276.5,216.5 Z"/></g>
<g><path style="opacity:1" fill="#17243c" d="M 197.5,156.5 C 199.507,172.09 200.007,187.757 199,203.5C 198.697,205.888 197.863,208.055 196.5,210C 197.365,211.359 198.365,212.526 199.5,213.5C 196.167,213.5 192.833,213.5 189.5,213.5C 191.64,212.032 193.806,210.365 196,208.5C 196.483,207.552 196.649,206.552 196.5,205.5C 197.661,192.006 197.827,178.34 197,164.5C 196.097,160.469 193.597,158.469 189.5,158.5C 191.635,156.631 194.302,155.964 197.5,156.5 Z"/></g>
<g><path style="opacity:1" fill="#b9c3cb" d="M 216.5,159.5 C 213.5,159.5 210.5,159.5 207.5,159.5C 207.5,176.5 207.5,193.5 207.5,210.5C 211.167,210.5 214.833,210.5 218.5,210.5C 214.702,211.483 210.702,211.817 206.5,211.5C 206.5,193.833 206.5,176.167 206.5,158.5C 210.042,158.187 213.375,158.521 216.5,159.5 Z"/></g>
<g><path style="opacity:1" fill="#ecede2" d="M 188.5,158.5 C 188.833,158.5 189.167,158.5 189.5,158.5C 193.597,158.469 196.097,160.469 197,164.5C 197.827,178.34 197.661,192.006 196.5,205.5C 195.833,206.167 195.167,206.833 194.5,207.5C 195.448,193.536 195.781,179.536 195.5,165.5C 194.178,165.67 193.011,165.337 192,164.5C 188.782,170.373 187.282,176.706 187.5,183.5C 187.863,190.624 189.03,197.624 191,204.5C 191.377,205.942 192.21,206.942 193.5,207.5C 191.736,208.712 190.07,208.379 188.5,206.5C 187.444,203.243 186.61,200.243 186,197.5C 186.362,188.796 186.196,180.129 185.5,171.5C 186.396,167.118 187.396,162.784 188.5,158.5 Z"/></g>
<g><path style="opacity:1" fill="#f1e7c6" d="M 194.5,207.5 C 194.167,207.5 193.833,207.5 193.5,207.5C 192.21,206.942 191.377,205.942 191,204.5C 189.03,197.624 187.863,190.624 187.5,183.5C 187.282,176.706 188.782,170.373 192,164.5C 193.011,165.337 194.178,165.67 195.5,165.5C 195.781,179.536 195.448,193.536 194.5,207.5 Z"/></g>
<g><path style="opacity:1" fill="#05214e" d="M 250.5,175.5 C 250.5,176.167 250.5,176.833 250.5,177.5C 251.051,183.839 250.051,189.839 247.5,195.5C 249.024,200.882 251.358,205.882 254.5,210.5C 253.164,212.375 253.664,213.708 256,214.5C 257.066,212.901 258.566,211.901 260.5,211.5C 261.386,212.325 261.719,213.325 261.5,214.5C 261.167,215.167 260.833,215.833 260.5,216.5C 259.244,216.904 258.077,217.571 257,218.5C 251.605,213.992 247.439,208.992 244.5,203.5C 243.167,203.167 241.833,202.833 240.5,202.5C 239.726,198.221 239.226,193.887 239,189.5C 238.667,189.833 238.333,190.167 238,190.5C 235.393,186.481 233.226,182.148 231.5,177.5C 231.043,176.702 230.376,176.369 229.5,176.5C 228.737,174.632 227.737,172.965 226.5,171.5C 226.67,170.178 226.337,169.011 225.5,168C 227.674,167.123 229.341,167.623 230.5,169.5C 230.414,170.496 230.748,171.329 231.5,172C 232.766,172.309 233.933,172.809 235,173.5C 234.408,177.898 236.241,179.898 240.5,179.5C 240.281,180.675 240.614,181.675 241.5,182.5C 241.833,182 242.167,181.5 242.5,181C 241.034,178.562 241.368,176.395 243.5,174.5C 241.787,173.122 240.453,171.455 239.5,169.5C 239.859,166.718 241.192,166.052 243.5,167.5C 245.76,169.745 247.094,172.411 247.5,175.5C 248.5,175.5 249.5,175.5 250.5,175.5 Z"/></g>
<g><path style="opacity:1" fill="#042252" d="M 197.5,156.5 C 198.833,156.5 200.167,156.5 201.5,156.5C 202.209,157.404 203.209,157.737 204.5,157.5C 203.764,175.781 203.431,194.114 203.5,212.5C 202.209,212.263 201.209,212.596 200.5,213.5C 200.167,213.5 199.833,213.5 199.5,213.5C 198.365,212.526 197.365,211.359 196.5,210C 197.863,208.055 198.697,205.888 199,203.5C 200.007,187.757 199.507,172.09 197.5,156.5 Z"/></g>
<g><path style="opacity:1" fill="#d5dfe4" d="M 254.5,203.5 C 252.382,200.924 251.049,197.924 250.5,194.5C 251.713,188.677 251.713,183.01 250.5,177.5C 250.5,176.833 250.5,176.167 250.5,175.5C 250.107,173.716 249.441,172.05 248.5,170.5C 250.3,169.395 251.467,170.061 252,172.5C 251.964,182.973 252.797,193.306 254.5,203.5 Z"/></g>
<g><path style="opacity:1" fill="#ebe1b5" d="M 274.5,201.5 C 276.023,199.104 277.023,196.438 277.5,193.5C 279.956,189.274 280.956,184.607 280.5,179.5C 282.5,179.5 284.5,179.5 286.5,179.5C 286.813,182.247 286.48,184.914 285.5,187.5C 284.548,185.955 284.215,184.288 284.5,182.5C 283.448,182.351 282.448,182.517 281.5,183C 282.578,186.099 282.578,189.266 281.5,192.5C 284.676,199.142 283.009,204.142 276.5,207.5C 273.396,206.443 272.73,204.443 274.5,201.5 Z"/></g>
<g><path style="opacity:1" fill="#e8eaec" d="M 226.5,171.5 C 227.737,172.965 228.737,174.632 229.5,176.5C 232.396,183.683 235.396,190.85 238.5,198C 234.807,203.87 229.807,208.037 223.5,210.5C 221.833,210.5 220.167,210.5 218.5,210.5C 218.825,208.868 219.825,207.868 221.5,207.5C 222.863,208.198 224.029,208.198 225,207.5C 226.423,204.771 227.09,202.105 227,199.5C 228.789,201.229 230.956,201.896 233.5,201.5C 234.657,198.652 234.324,196.152 232.5,194C 233.143,190.909 232.31,188.075 230,185.5C 228.757,186.336 227.59,186.003 226.5,184.5C 225.721,179.775 225.721,175.442 226.5,171.5 Z"/></g>
<g><path style="opacity:1" fill="#14233a" d="M 201.5,156.5 C 207.167,156.5 212.833,156.5 218.5,156.5C 223.122,156.156 227.455,156.823 231.5,158.5C 229.473,158.338 227.473,158.505 225.5,159C 226.756,159.417 227.423,160.25 227.5,161.5C 226.167,161.167 224.833,160.833 223.5,160.5C 221.393,159.532 219.059,159.198 216.5,159.5C 213.375,158.521 210.042,158.187 206.5,158.5C 206.5,176.167 206.5,193.833 206.5,211.5C 210.702,211.817 214.702,211.483 218.5,210.5C 220.167,210.5 221.833,210.5 223.5,210.5C 224.919,211.451 226.585,211.784 228.5,211.5C 228.158,212.338 227.492,212.672 226.5,212.5C 217.862,213.34 209.195,213.673 200.5,213.5C 201.209,212.596 202.209,212.263 203.5,212.5C 203.431,194.114 203.764,175.781 204.5,157.5C 203.209,157.737 202.209,157.404 201.5,156.5 Z"/></g>
<g><path style="opacity:1" fill="#f9f6e7" d="M 276.5,216.5 C 291.199,201.44 294.532,184.107 286.5,164.5C 284.031,166.948 282.031,169.615 280.5,172.5C 280.5,171.167 280.5,169.833 280.5,168.5C 283.257,165.753 285.591,162.753 287.5,159.5C 288.5,159.5 289.5,159.5 290.5,159.5C 293.472,172.7 294.139,186.033 292.5,199.5C 291.5,199.5 290.5,199.5 289.5,199.5C 289.663,201.857 289.497,204.19 289,206.5C 287.15,204.038 285.983,204.538 285.5,208C 287.036,209.599 287.536,211.433 287,213.5C 285.336,211.195 283.836,211.528 282.5,214.5C 284.171,216.51 284.838,218.843 284.5,221.5C 281.14,222.21 279.307,220.876 279,217.5C 278.329,216.748 277.496,216.414 276.5,216.5 Z"/></g>
<g><path style="opacity:1" fill="#ecece6" d="M 280.5,168.5 C 280.5,169.833 280.5,171.167 280.5,172.5C 278.378,179.325 277.378,186.325 277.5,193.5C 277.023,196.438 276.023,199.104 274.5,201.5C 273.849,200.909 273.182,200.243 272.5,199.5C 272.167,199.833 271.833,200.167 271.5,200.5C 272.348,202.409 272.682,204.409 272.5,206.5C 271.448,206.351 270.448,206.517 269.5,207C 268.672,208.992 267.339,210.492 265.5,211.5C 265.211,214.567 263.544,216.567 260.5,217.5C 260.5,217.167 260.5,216.833 260.5,216.5C 260.833,215.833 261.167,215.167 261.5,214.5C 268.224,199.328 274.557,183.995 280.5,168.5 Z"/></g>
<g><path style="opacity:1" fill="#122442" d="M 284.5,160.5 C 282.229,162.612 280.896,165.279 280.5,168.5C 274.557,183.995 268.224,199.328 261.5,214.5C 261.719,213.325 261.386,212.325 260.5,211.5C 258.566,211.901 257.066,212.901 256,214.5C 253.664,213.708 253.164,212.375 254.5,210.5C 251.358,205.882 249.024,200.882 247.5,195.5C 250.051,189.839 251.051,183.839 250.5,177.5C 251.713,183.01 251.713,188.677 250.5,194.5C 251.049,197.924 252.382,200.924 254.5,203.5C 255.167,205.167 255.833,206.833 256.5,208.5C 258.013,211.048 259.013,210.715 259.5,207.5C 264.677,193.151 270.177,178.818 276,164.5C 276.748,162.16 276.248,160.16 274.5,158.5C 277.625,157.521 280.958,157.187 284.5,157.5C 284.5,158.5 284.5,159.5 284.5,160.5 Z"/></g>
<g><path style="opacity:1" fill="#6c8497" d="M 259.5,207.5 C 259.013,210.715 258.013,211.048 256.5,208.5C 257.609,208.443 258.609,208.11 259.5,207.5 Z"/></g>
<g><path style="opacity:1" fill="#757b8b" d="M 226.5,212.5 C 226.5,212.833 226.5,213.167 226.5,213.5C 214.02,214.761 201.686,214.761 189.5,213.5C 192.833,213.5 196.167,213.5 199.5,213.5C 199.833,213.5 200.167,213.5 200.5,213.5C 209.195,213.673 217.862,213.34 226.5,212.5 Z"/></g>
<g><path style="opacity:1" fill="#132445" d="M 229.5,176.5 C 230.376,176.369 231.043,176.702 231.5,177.5C 233.226,182.148 235.393,186.481 238,190.5C 238.333,190.167 238.667,189.833 239,189.5C 239.226,193.887 239.726,198.221 240.5,202.5C 241.833,202.833 243.167,203.167 244.5,203.5C 247.439,208.992 251.605,213.992 257,218.5C 258.077,217.571 259.244,216.904 260.5,216.5C 260.5,216.833 260.5,217.167 260.5,217.5C 260.5,217.833 260.5,218.167 260.5,218.5C 258.391,221.057 255.725,222.223 252.5,222C 249.183,216.385 245.683,210.885 242,205.5C 238.028,208.737 233.528,210.737 228.5,211.5C 226.585,211.784 224.919,211.451 223.5,210.5C 229.807,208.037 234.807,203.87 238.5,198C 235.396,190.85 232.396,183.683 229.5,176.5 Z"/></g>
<g><path style="opacity:1" fill="#e6e8e6" d="M 260.5,218.5 C 260.5,220.167 260.5,221.833 260.5,223.5C 256.473,224.279 252.473,223.945 248.5,222.5C 247.942,221.21 246.942,220.377 245.5,220C 245.833,219.667 246.167,219.333 246.5,219C 244.846,218.392 243.179,217.892 241.5,217.5C 241.48,215.857 242.147,214.524 243.5,213.5C 243.038,211.709 241.871,210.709 240,210.5C 237.299,211.937 234.466,212.937 231.5,213.5C 230.065,212.904 228.398,212.904 226.5,213.5C 226.5,213.167 226.5,212.833 226.5,212.5C 227.492,212.672 228.158,212.338 228.5,211.5C 233.528,210.737 238.028,208.737 242,205.5C 245.683,210.885 249.183,216.385 252.5,222C 255.725,222.223 258.391,221.057 260.5,218.5 Z"/></g>
<g><path style="opacity:1" fill="#f8f7e7" d="M 241.5,217.5 C 240.714,219.735 239.048,220.735 236.5,220.5C 228.019,220.003 219.686,218.669 211.5,216.5C 208.994,216.221 206.994,217.054 205.5,219C 217.119,229.455 230.786,233.622 246.5,231.5C 238.344,232.657 230.01,232.823 221.5,232C 217.081,231.588 213.415,229.754 210.5,226.5C 209.914,226.709 209.414,227.043 209,227.5C 207.471,224.734 205.304,222.734 202.5,221.5C 198.804,220.067 195.304,220.4 192,222.5C 191.51,221.207 191.343,219.873 191.5,218.5C 194.407,218.425 197.073,217.591 199.5,216C 202.833,215.833 206.167,215.667 209.5,215.5C 217.476,216.55 225.476,217.05 233.5,217C 231.285,215.956 228.952,215.29 226.5,215C 228.247,214.648 229.914,214.148 231.5,213.5C 234.466,212.937 237.299,211.937 240,210.5C 241.871,210.709 243.038,211.709 243.5,213.5C 242.147,214.524 241.48,215.857 241.5,217.5 Z"/></g>
<g><path style="opacity:1" fill="#f5edd8" d="M 265.5,211.5 C 265.579,213.666 266.246,215.666 267.5,217.5C 266.722,219.147 265.556,220.48 264,221.5C 263.517,222.448 263.351,223.448 263.5,224.5C 258.757,225.372 254.091,226.538 249.5,228C 240.73,228.94 232.064,228.607 223.5,227C 231.429,225.637 239.429,225.137 247.5,225.5C 247.263,224.209 247.596,223.209 248.5,222.5C 252.473,223.945 256.473,224.279 260.5,223.5C 260.5,221.833 260.5,220.167 260.5,218.5C 260.5,218.167 260.5,217.833 260.5,217.5C 263.544,216.567 265.211,214.567 265.5,211.5 Z"/></g>
<g><path style="opacity:1" fill="#3e4b60" d="M 113.5,242.5 C 103.81,242.168 94.1437,242.502 84.5,243.5C 86.0383,245.243 87.0383,247.243 87.5,249.5C 86.596,250.209 86.2627,251.209 86.5,252.5C 86.8301,270.674 86.4968,288.674 85.5,306.5C 85.6666,286.831 85.5,267.164 85,247.5C 82.2168,246.072 79.3835,244.738 76.5,243.5C 76.7093,242.914 77.0426,242.414 77.5,242C 89.6738,241.174 101.674,241.34 113.5,242.5 Z"/></g>
<g><path style="opacity:1" fill="#132545" d="M 113.5,242.5 C 116.167,242.833 118.833,243.167 121.5,243.5C 125.026,244.974 128.693,246.307 132.5,247.5C 147.141,256.889 152.307,270.223 148,287.5C 141.995,303.263 130.495,311.263 113.5,311.5C 101.655,311.828 89.988,311.495 78.5,310.5C 81.5327,310.185 83.8661,308.851 85.5,306.5C 86.4968,288.674 86.8301,270.674 86.5,252.5C 87.3094,253.469 88.3094,254.302 89.5,255C 88.8408,262.924 88.5074,270.924 88.5,279C 88.3615,287.597 88.8615,296.097 90,304.5C 93.3393,304.161 94.8393,302.328 94.5,299C 94.5839,284.851 94.2506,270.684 93.5,256.5C 92.5,256 91.5,255.5 90.5,255C 92.607,253.736 93.607,251.903 93.5,249.5C 92.325,249.719 91.325,249.386 90.5,248.5C 91.6853,247.147 93.0186,245.98 94.5,245C 92.0454,243.46 89.3787,243.126 86.5,244C 89.7677,245.642 90.101,247.475 87.5,249.5C 87.0383,247.243 86.0383,245.243 84.5,243.5C 94.1437,242.502 103.81,242.168 113.5,242.5 Z"/></g>
<g><path style="opacity:1" fill="#b2bfcb" d="M 121.5,243.5 C 124.914,243.736 128.247,244.402 131.5,245.5C 131.863,246.183 132.196,246.85 132.5,247.5C 128.693,246.307 125.026,244.974 121.5,243.5 Z"/></g>
<g><path style="opacity:1" fill="#f6f8f8" d="M 127.5,254.5 C 136.047,263.873 138.88,274.873 136,287.5C 133.697,296.796 128.197,303.296 119.5,307C 111.895,308.311 104.228,308.811 96.5,308.5C 96.5,287.5 96.5,266.5 96.5,245.5C 108.276,243.873 118.609,246.873 127.5,254.5 Z"/></g>
<g><path style="opacity:1" fill="#8e96a1" d="M 324.5,250.5 C 328.351,249.191 332.351,249.191 336.5,250.5C 336.376,251.107 336.043,251.44 335.5,251.5C 332.038,250.518 328.371,250.185 324.5,250.5 Z"/></g>
<g><path style="opacity:1" fill="#102144" d="M 160.5,249.5 C 163.807,249.063 166.807,249.73 169.5,251.5C 170.651,257.846 167.984,260.346 161.5,259C 159.161,256.113 158.828,252.946 160.5,249.5 Z"/></g>
<g><path style="opacity:1" fill="#011f4c" d="M 86.5,252.5 C 86.2627,251.209 86.596,250.209 87.5,249.5C 90.101,247.475 89.7677,245.642 86.5,244C 89.3787,243.126 92.0454,243.46 94.5,245C 93.0186,245.98 91.6853,247.147 90.5,248.5C 91.325,249.386 92.325,249.719 93.5,249.5C 93.607,251.903 92.607,253.736 90.5,255C 91.5,255.5 92.5,256 93.5,256.5C 94.2506,270.684 94.5839,284.851 94.5,299C 94.8393,302.328 93.3393,304.161 90,304.5C 88.8615,296.097 88.3615,287.597 88.5,279C 88.5074,270.924 88.8408,262.924 89.5,255C 88.3094,254.302 87.3094,253.469 86.5,252.5 Z"/></g>
<g><path style="opacity:1" fill="#142442" d="M 231.5,249.5 C 234.32,249.248 236.986,249.748 239.5,251C 241.024,257.478 238.358,260.144 231.5,259C 228.888,255.836 228.888,252.669 231.5,249.5 Z"/></g>
<g><path style="opacity:1" fill="#1b2544" d="M 324.5,250.5 C 328.371,250.185 332.038,250.518 335.5,251.5C 329.716,256.565 323.383,260.898 316.5,264.5C 315.479,263.998 315.312,263.332 316,262.5C 319.58,258.997 322.414,254.997 324.5,250.5 Z"/></g>
<g><path style="opacity:1" fill="#6e7a88" d="M 259.5,268.5 C 260.568,267.566 261.901,267.232 263.5,267.5C 263.194,270.385 263.527,273.052 264.5,275.5C 264.5,276.167 264.167,276.5 263.5,276.5C 262.596,275.791 262.263,274.791 262.5,273.5C 262.5,271.833 262.5,270.167 262.5,268.5C 261.5,268.5 260.5,268.5 259.5,268.5 Z"/></g>
<g><path style="opacity:1" fill="#152545" d="M 335.5,271.5 C 335.427,273.027 336.094,274.027 337.5,274.5C 338.674,275.514 339.34,276.847 339.5,278.5C 339.5,280.5 339.5,282.5 339.5,284.5C 338.5,284.5 337.5,284.5 336.5,284.5C 339.375,279.602 338.042,275.936 332.5,273.5C 331.575,274.641 330.741,274.641 330,273.5C 329.536,274.094 329.369,274.761 329.5,275.5C 326.314,271.158 321.981,269.658 316.5,271C 313.8,272.857 312.134,275.357 311.5,278.5C 310.566,279.568 310.232,280.901 310.5,282.5C 309.685,281.571 308.852,280.571 308,279.5C 307.259,280.641 306.425,280.641 305.5,279.5C 301.361,284.355 299.695,290.022 300.5,296.5C 297.508,285.316 300.841,276.483 310.5,270C 319.178,266.271 327.511,266.771 335.5,271.5 Z"/></g>
<g><path style="opacity:1" fill="#1b2a44" d="M 234.5,268.5 C 235.167,268.5 235.833,268.5 236.5,268.5C 239.084,269.048 240.084,270.715 239.5,273.5C 237.927,270.198 235.594,269.865 232.5,272.5C 231.833,283.659 231.167,294.659 230.5,305.5C 230.5,295.167 230.5,284.833 230.5,274.5C 229.5,274.5 228.5,274.5 227.5,274.5C 226.909,273.849 226.243,273.182 225.5,272.5C 228.703,271.394 231.703,270.061 234.5,268.5 Z"/></g>
<g><path style="opacity:1" fill="#232f3e" d="M 255.5,269.5 C 254.27,271.297 253.604,273.297 253.5,275.5C 252.609,274.89 251.609,274.557 250.5,274.5C 249.167,273.5 249.167,272.5 250.5,271.5C 251.93,270.463 253.597,269.796 255.5,269.5 Z"/></g>
<g><path style="opacity:1" fill="#647180" d="M 335.5,271.5 C 336.906,271.973 337.573,272.973 337.5,274.5C 336.094,274.027 335.427,273.027 335.5,271.5 Z"/></g>
<g><path style="opacity:1" fill="#23304a" d="M 357.5,285.5 C 365.99,284.67 374.657,284.17 383.5,284C 385.635,280.926 385.469,277.759 383,274.5C 381.301,273.594 379.467,273.261 377.5,273.5C 377.5,274.833 377.5,276.167 377.5,277.5C 375.734,275.229 373.734,273.063 371.5,271C 367.897,270.157 364.564,270.657 361.5,272.5C 360.312,271.952 359.145,271.619 358,271.5C 356.549,273.464 354.716,274.797 352.5,275.5C 354.94,271.23 358.607,268.73 363.5,268C 372.664,265.721 380.164,268.221 386,275.5C 387.316,278.688 387.816,282.022 387.5,285.5C 377.5,285.5 367.5,285.5 357.5,285.5 Z"/></g>
<g><path style="opacity:1" fill="#8b8d96" d="M 250.5,271.5 C 249.167,272.5 249.167,273.5 250.5,274.5C 247.833,273.5 247.833,272.5 250.5,271.5 Z"/></g>
<g><path style="opacity:1" fill="#021e49" d="M 239.5,273.5 C 239.172,285.345 239.505,297.012 240.5,308.5C 241.605,309.6 242.938,310.267 244.5,310.5C 238.167,311.833 231.833,311.833 225.5,310.5C 228.797,310.368 230.463,308.702 230.5,305.5C 231.167,294.659 231.833,283.659 232.5,272.5C 235.594,269.865 237.927,270.198 239.5,273.5 Z"/></g>
<g><path style="opacity:1" fill="#021f4e" d="M 127.5,254.5 C 127.219,252.037 126.219,249.87 124.5,248C 126.471,247.986 128.471,248.319 130.5,249C 136.832,253.625 141.832,259.292 145.5,266C 144.032,268.028 144.199,269.862 146,271.5C 147.524,278.653 146.024,284.486 141.5,289C 143.244,291.854 142.744,294.021 140,295.5C 138.008,294.771 137.174,293.271 137.5,291C 138.985,284.448 139.985,277.781 140.5,271C 137.028,265.45 134.194,260.283 132,255.5C 131.667,255.833 131.333,256.167 131,256.5C 130.29,255.027 129.124,254.36 127.5,254.5 Z"/></g>
<g><path style="opacity:1" fill="#011e4c" d="M 168.5,271.5 C 168.012,284.128 168.012,296.795 168.5,309.5C 166.712,309.785 165.045,309.452 163.5,308.5C 163.931,307.707 164.265,306.873 164.5,306C 163.688,301.363 163.022,296.696 162.5,292C 163.409,285.85 163.409,279.683 162.5,273.5C 163.723,270.648 165.723,269.981 168.5,271.5 Z"/></g>
<g><path style="opacity:1" fill="#0f1c49" d="M 361.5,272.5 C 361.267,274.062 360.6,275.395 359.5,276.5C 359.167,276.5 358.833,276.5 358.5,276.5C 356.862,277.159 355.195,277.826 353.5,278.5C 352.614,277.675 352.281,276.675 352.5,275.5C 354.716,274.797 356.549,273.464 358,271.5C 359.145,271.619 360.312,271.952 361.5,272.5 Z"/></g>
<g><path style="opacity:1" fill="#1e2d47" d="M 167.5,268.5 C 168.11,269.391 168.443,270.391 168.5,271.5C 165.723,269.981 163.723,270.648 162.5,273.5C 161.833,284.5 161.167,295.5 160.5,306.5C 160.666,296.161 160.5,285.828 160,275.5C 157.232,274.792 156.399,273.292 157.5,271C 160.72,269.648 164.053,268.814 167.5,268.5 Z"/></g>
<g><path style="opacity:1" fill="#11244c" d="M 292.5,309.5 C 291.883,309.389 291.383,309.056 291,308.5C 288.602,311.054 286.269,311.054 284,308.5C 282.907,298.064 282.073,287.73 281.5,277.5C 280.167,275.833 278.833,274.167 277.5,272.5C 275.156,272.06 273.156,271.06 271.5,269.5C 277.614,266.531 283.448,267.198 289,271.5C 289.471,273.246 290.138,274.913 291,276.5C 291.211,287.546 291.711,298.546 292.5,309.5 Z"/></g>
<g><path style="opacity:1" fill="#eef3f3" d="M 329.5,275.5 C 329.5,276.5 329.5,277.5 329.5,278.5C 329.5,279.5 329.5,280.5 329.5,281.5C 323.5,281.5 317.5,281.5 311.5,281.5C 311.5,280.5 311.5,279.5 311.5,278.5C 312.134,275.357 313.8,272.857 316.5,271C 321.981,269.658 326.314,271.158 329.5,275.5 Z"/></g>
<g><path style="opacity:1" fill="#eff5f5" d="M 377.5,277.5 C 377.5,278.833 377.5,280.167 377.5,281.5C 371.132,281.83 364.798,281.496 358.5,280.5C 359.246,279.264 359.579,277.93 359.5,276.5C 360.6,275.395 361.267,274.062 361.5,272.5C 364.564,270.657 367.897,270.157 371.5,271C 373.734,273.063 375.734,275.229 377.5,277.5 Z"/></g>
<g><path style="opacity:1" fill="#bbc5d4" d="M 180.5,274.5 C 180.833,274.5 181.167,274.5 181.5,274.5C 181.912,276.887 182.912,278.887 184.5,280.5C 184.629,282.216 184.962,283.883 185.5,285.5C 182.621,282.481 180.955,278.814 180.5,274.5 Z"/></g>
<g><path style="opacity:1" fill="#e2e8ec" d="M 234.5,268.5 C 231.703,270.061 228.703,271.394 225.5,272.5C 226.243,273.182 226.909,273.849 227.5,274.5C 225.856,274.286 224.356,274.62 223,275.5C 220.849,272.888 220.015,272.888 220.5,275.5C 217.025,284.122 213.359,292.622 209.5,301C 210.517,302.049 210.684,303.216 210,304.5C 209.586,304.043 209.086,303.709 208.5,303.5C 207.378,304.63 206.044,305.297 204.5,305.5C 209.036,294.4 213.869,283.4 219,272.5C 220.214,270.951 221.714,269.785 223.5,269C 218.833,268.333 214.167,268.333 209.5,269C 213.19,269.69 214.357,271.857 213,275.5C 212.722,276.416 212.222,277.082 211.5,277.5C 211.082,276.778 210.416,276.278 209.5,276C 210.308,275.692 210.975,275.192 211.5,274.5C 210.289,273.28 210.289,272.113 211.5,271C 210.167,270.667 208.833,270.333 207.5,270C 208.833,269.333 208.833,268.667 207.5,268C 213.749,267.191 219.916,267.358 226,268.5C 226.333,267.833 226.667,267.167 227,266.5C 228.333,267.833 229.667,267.833 231,266.5C 231.71,267.973 232.876,268.64 234.5,268.5 Z"/></g>
<g><path style="opacity:1" fill="#727e97" d="M 311.5,278.5 C 311.5,279.5 311.5,280.5 311.5,281.5C 317.5,281.5 323.5,281.5 329.5,281.5C 329.5,280.5 329.5,279.5 329.5,278.5C 330.434,279.568 330.768,280.901 330.5,282.5C 323.833,282.5 317.167,282.5 310.5,282.5C 310.232,280.901 310.566,279.568 311.5,278.5 Z"/></g>
<g><path style="opacity:1" fill="#6e7d93" d="M 358.5,276.5 C 358.833,276.5 359.167,276.5 359.5,276.5C 359.579,277.93 359.246,279.264 358.5,280.5C 364.798,281.496 371.132,281.83 377.5,281.5C 370.833,282.833 364.167,282.833 357.5,281.5C 357.629,279.784 357.962,278.117 358.5,276.5 Z"/></g>
<g><path style="opacity:1" fill="#02204e" d="M 262.5,273.5 C 262.263,274.791 262.596,275.791 263.5,276.5C 261.907,279.232 260.907,282.232 260.5,285.5C 260.538,290.926 260.372,296.593 260,302.5C 258.644,303.38 257.144,303.714 255.5,303.5C 255.325,296.475 255.658,289.475 256.5,282.5C 256.558,279.953 255.891,277.62 254.5,275.5C 255.274,274.289 256.107,274.289 257,275.5C 258.046,272.541 259.879,271.874 262.5,273.5 Z"/></g>
<g><path style="opacity:1" fill="#5e657d" d="M 339.5,278.5 C 340.468,280.607 340.802,282.941 340.5,285.5C 330.5,285.5 320.5,285.5 310.5,285.5C 318.984,284.507 327.651,284.174 336.5,284.5C 337.5,284.5 338.5,284.5 339.5,284.5C 339.5,282.5 339.5,280.5 339.5,278.5 Z"/></g>
<g><path style="opacity:1" fill="#212e46" d="M 271.5,269.5 C 273.156,271.06 275.156,272.06 277.5,272.5C 271.261,271.536 266.761,273.869 264,279.5C 263.333,289.5 263.333,299.5 264,309.5C 264.671,310.252 265.504,310.586 266.5,310.5C 265.081,311.451 263.415,311.784 261.5,311.5C 261.555,302.846 261.222,294.179 260.5,285.5C 260.907,282.232 261.907,279.232 263.5,276.5C 264.167,276.5 264.5,276.167 264.5,275.5C 266.239,272.757 268.573,270.757 271.5,269.5 Z"/></g>
<g><path style="opacity:1" fill="#445167" d="M 167.5,268.5 C 168.209,267.596 169.209,267.263 170.5,267.5C 170.5,280.833 170.5,294.167 170.5,307.5C 170.16,294.301 169.16,281.301 167.5,268.5 Z"/></g>
<g><path style="opacity:1" fill="#071e48" d="M 357.5,285.5 C 356.616,288.023 355.782,290.69 355,293.5C 354.667,293.167 354.333,292.833 354,292.5C 352.426,293.984 351.093,295.651 350,297.5C 349.333,293.5 349.333,289.5 350,285.5C 352.043,283.792 353.71,281.792 355,279.5C 355.417,280.756 356.25,281.423 357.5,281.5C 364.167,282.833 370.833,282.833 377.5,281.5C 377.5,280.167 377.5,278.833 377.5,277.5C 377.5,276.167 377.5,274.833 377.5,273.5C 379.467,273.261 381.301,273.594 383,274.5C 385.469,277.759 385.635,280.926 383.5,284C 374.657,284.17 365.99,284.67 357.5,285.5 Z"/></g>
<g><path style="opacity:1" fill="#182848" d="M 352.5,275.5 C 352.281,276.675 352.614,277.675 353.5,278.5C 355.195,277.826 356.862,277.159 358.5,276.5C 357.962,278.117 357.629,279.784 357.5,281.5C 356.25,281.423 355.417,280.756 355,279.5C 353.71,281.792 352.043,283.792 350,285.5C 349.333,289.5 349.333,293.5 350,297.5C 351.093,295.651 352.426,293.984 354,292.5C 354.333,292.833 354.667,293.167 355,293.5C 355.782,290.69 356.616,288.023 357.5,285.5C 357.5,288.5 357.5,291.5 357.5,294.5C 355.742,296.141 354.242,298.141 353,300.5C 352.205,303.383 353.371,304.883 356.5,305C 361.498,311.84 367.832,313.34 375.5,309.5C 374.398,308.824 373.398,308.158 372.5,307.5C 374.857,307.663 377.19,307.497 379.5,307C 382.397,305.263 385.397,303.763 388.5,302.5C 389.282,304.329 388.616,305.829 386.5,307C 383.968,308.765 381.301,310.265 378.5,311.5C 374.202,312.2 369.869,312.533 365.5,312.5C 357.281,311.455 351.447,307.122 348,299.5C 346.508,294.589 346.174,289.589 347,284.5C 347.872,280.819 349.706,277.819 352.5,275.5 Z"/></g>
<g><path style="opacity:1" fill="#3e4a65" d="M 236.5,268.5 C 237.568,267.566 238.901,267.232 240.5,267.5C 240.5,281.167 240.5,294.833 240.5,308.5C 239.505,297.012 239.172,285.345 239.5,273.5C 240.084,270.715 239.084,269.048 236.5,268.5 Z"/></g>
<g><path style="opacity:1" fill="#011e53" d="M 286.5,285.5 C 287.135,292.8 287.802,300.134 288.5,307.5C 287.127,307.657 285.793,307.49 284.5,307C 285.28,305.927 285.113,304.76 284,303.5C 283.501,298.177 283.334,292.844 283.5,287.5C 285.179,287.715 286.179,287.048 286.5,285.5 Z"/></g>
<g><path style="opacity:1" fill="#062048" d="M 336.5,284.5 C 327.651,284.174 318.984,284.507 310.5,285.5C 310.5,288.167 310.5,290.833 310.5,293.5C 309.903,293.735 309.57,294.235 309.5,295C 310.167,297.667 310.833,300.333 311.5,303C 314.189,305.67 317.189,307.837 320.5,309.5C 317.348,310.809 314.348,310.476 311.5,308.5C 307.127,305.128 303.46,301.128 300.5,296.5C 299.695,290.022 301.361,284.355 305.5,279.5C 306.425,280.641 307.259,280.641 308,279.5C 308.852,280.571 309.685,281.571 310.5,282.5C 317.167,282.5 323.833,282.5 330.5,282.5C 330.768,280.901 330.434,279.568 329.5,278.5C 329.5,277.5 329.5,276.5 329.5,275.5C 329.369,274.761 329.536,274.094 330,273.5C 330.741,274.641 331.575,274.641 332.5,273.5C 338.042,275.936 339.375,279.602 336.5,284.5 Z"/></g>
<g><path style="opacity:1" fill="#03204c" d="M 184.5,280.5 C 182.912,278.887 181.912,276.887 181.5,274.5C 181.5,273.167 181.5,271.833 181.5,270.5C 183.467,270.261 185.301,270.594 187,271.5C 189.984,276.533 192.484,281.7 194.5,287C 194.167,287.333 193.833,287.667 193.5,288C 195.394,289.079 195.727,290.413 194.5,292C 195.227,293.399 195.727,294.899 196,296.5C 198.783,297.641 200.95,299.475 202.5,302C 202.406,303.422 202.072,304.922 201.5,306.5C 200.251,308.475 198.751,308.809 197,307.5C 196.273,304.136 195.44,300.803 194.5,297.5C 193.914,297.709 193.414,298.043 193,298.5C 191.52,293.724 189.853,289.057 188,284.5C 187.051,282.907 185.885,281.574 184.5,280.5 Z"/></g>
<g><path style="opacity:1" fill="#132440" d="M 211.5,277.5 C 212.222,277.082 212.722,276.416 213,275.5C 214.357,271.857 213.19,269.69 209.5,269C 214.167,268.333 218.833,268.333 223.5,269C 221.714,269.785 220.214,270.951 219,272.5C 213.869,283.4 209.036,294.4 204.5,305.5C 203.609,307.291 202.609,309.124 201.5,311C 199.866,311.494 198.199,311.66 196.5,311.5C 193.369,302.575 189.702,293.909 185.5,285.5C 184.962,283.883 184.629,282.216 184.5,280.5C 185.885,281.574 187.051,282.907 188,284.5C 189.853,289.057 191.52,293.724 193,298.5C 193.414,298.043 193.914,297.709 194.5,297.5C 195.44,300.803 196.273,304.136 197,307.5C 198.751,308.809 200.251,308.475 201.5,306.5C 202.072,304.922 202.406,303.422 202.5,302C 200.95,299.475 198.783,297.641 196,296.5C 195.727,294.899 195.227,293.399 194.5,292C 195.727,290.413 195.394,289.079 193.5,288C 193.833,287.667 194.167,287.333 194.5,287C 192.484,281.7 189.984,276.533 187,271.5C 185.301,270.594 183.467,270.261 181.5,270.5C 181.5,271.833 181.5,273.167 181.5,274.5C 181.167,274.5 180.833,274.5 180.5,274.5C 179.723,271.888 178.056,270.055 175.5,269C 181.833,268.333 188.167,268.333 194.5,269C 192.427,269.118 191.093,270.118 190.5,272C 194.563,281.287 198.73,290.454 203,299.5C 206.106,292.286 208.939,284.952 211.5,277.5 Z"/></g>
<g><path style="opacity:1" fill="#091f44" d="M 259.5,268.5 C 260.5,268.5 261.5,268.5 262.5,268.5C 262.5,270.167 262.5,271.833 262.5,273.5C 259.879,271.874 258.046,272.541 257,275.5C 256.107,274.289 255.274,274.289 254.5,275.5C 255.891,277.62 256.558,279.953 256.5,282.5C 255.658,289.475 255.325,296.475 255.5,303.5C 257.144,303.714 258.644,303.38 260,302.5C 260.372,296.593 260.538,290.926 260.5,285.5C 261.222,294.179 261.555,302.846 261.5,311.5C 257.298,311.817 253.298,311.483 249.5,310.5C 250.721,309.972 251.887,309.305 253,308.5C 253.5,297.505 253.667,286.505 253.5,275.5C 253.604,273.297 254.27,271.297 255.5,269.5C 256.708,268.766 258.041,268.433 259.5,268.5 Z"/></g>
<g><path style="opacity:1" fill="#0a2049" d="M 357.5,294.5 C 359.216,297.573 361.216,300.573 363.5,303.5C 366.148,305.658 369.148,306.992 372.5,307.5C 373.398,308.158 374.398,308.824 375.5,309.5C 367.832,313.34 361.498,311.84 356.5,305C 353.371,304.883 352.205,303.383 353,300.5C 354.242,298.141 355.742,296.141 357.5,294.5 Z"/></g>
<g><path style="opacity:1" fill="#091d3c" d="M 167.5,268.5 C 169.16,281.301 170.16,294.301 170.5,307.5C 170.5,309.5 171.5,310.5 173.5,310.5C 167.833,311.833 162.167,311.833 156.5,310.5C 158.5,309.833 159.833,308.5 160.5,306.5C 161.167,295.5 161.833,284.5 162.5,273.5C 163.409,279.683 163.409,285.85 162.5,292C 163.022,296.696 163.688,301.363 164.5,306C 164.265,306.873 163.931,307.707 163.5,308.5C 165.045,309.452 166.712,309.785 168.5,309.5C 168.012,296.795 168.012,284.128 168.5,271.5C 168.443,270.391 168.11,269.391 167.5,268.5 Z"/></g>
<g><path style="opacity:1" fill="#605f67" d="M 293.5,309.5 C 294.675,309.281 295.675,309.614 296.5,310.5C 296.376,311.107 296.043,311.44 295.5,311.5C 294.833,310.833 294.167,310.167 293.5,309.5 Z"/></g>
<g><path style="opacity:1" fill="#142644" d="M 310.5,293.5 C 316.519,308.501 326.519,311.501 340.5,302.5C 341.089,304.373 340.422,306.04 338.5,307.5C 329.274,313.159 319.607,313.993 309.5,310C 304.641,306.658 301.641,302.158 300.5,296.5C 303.46,301.128 307.127,305.128 311.5,308.5C 314.348,310.476 317.348,310.809 320.5,309.5C 317.189,307.837 314.189,305.67 311.5,303C 310.833,300.333 310.167,297.667 309.5,295C 309.57,294.235 309.903,293.735 310.5,293.5 Z"/></g>
<g><path style="opacity:1" fill="#515b6f" d="M 78.5,310.5 C 89.988,311.495 101.655,311.828 113.5,311.5C 101.66,312.825 89.6602,312.825 77.5,311.5C 77.6236,310.893 77.9569,310.56 78.5,310.5 Z"/></g>
<g><path style="opacity:1" fill="#555b69" d="M 156.5,310.5 C 162.167,311.833 167.833,311.833 173.5,310.5C 174.376,310.369 175.043,310.702 175.5,311.5C 168.5,312.833 161.5,312.833 154.5,311.5C 154.957,310.702 155.624,310.369 156.5,310.5 Z"/></g>
<g><path style="opacity:1" fill="#525d6e" d="M 225.5,310.5 C 231.833,311.833 238.167,311.833 244.5,310.5C 245.043,310.56 245.376,310.893 245.5,311.5C 238.5,312.833 231.5,312.833 224.5,311.5C 224.624,310.893 224.957,310.56 225.5,310.5 Z"/></g>
<g><path style="opacity:1" fill="#535a6b" d="M 249.5,310.5 C 253.298,311.483 257.298,311.817 261.5,311.5C 263.415,311.784 265.081,311.451 266.5,310.5C 267.376,310.369 268.043,310.702 268.5,311.5C 261.833,312.833 255.167,312.833 248.5,311.5C 248.624,310.893 248.957,310.56 249.5,310.5 Z"/></g>
<g><path style="opacity:1" fill="#14233c" d="M 281.5,277.5 C 282.073,287.73 282.907,298.064 284,308.5C 286.269,311.054 288.602,311.054 291,308.5C 291.383,309.056 291.883,309.389 292.5,309.5C 292.833,309.5 293.167,309.5 293.5,309.5C 294.167,310.167 294.833,310.833 295.5,311.5C 292.843,311.83 290.176,312.163 287.5,312.5C 285.307,312.674 283.473,312.007 282,310.5C 281.5,299.505 281.333,288.505 281.5,277.5 Z"/></g>
<g><path style="opacity:1" fill="#909eac" d="M 378.5,311.5 C 376.152,312.952 373.486,313.618 370.5,313.5C 368.631,313.493 366.964,313.16 365.5,312.5C 369.869,312.533 374.202,312.2 378.5,311.5 Z"/></g>
<g><path style="opacity:1" fill="#f8e9c6" d="M 261.5,324.5 C 256.5,324.5 251.5,324.5 246.5,324.5C 246.207,328.437 246.54,332.27 247.5,336C 241.843,336.499 236.176,336.666 230.5,336.5C 230.216,333.223 230.549,330.057 231.5,327C 234.817,326.502 238.15,326.335 241.5,326.5C 241.5,328.5 241.5,330.5 241.5,332.5C 239.5,332.5 237.5,332.5 235.5,332.5C 235.762,331.022 235.429,329.689 234.5,328.5C 232.717,330.023 232.051,332.023 232.5,334.5C 236.167,334.5 239.833,334.5 243.5,334.5C 243.5,331.167 243.5,327.833 243.5,324.5C 238.821,324.334 234.155,324.501 229.5,325C 228.54,328.73 228.207,332.563 228.5,336.5C 223.167,336.5 217.833,336.5 212.5,336.5C 212.249,333.091 212.583,329.758 213.5,326.5C 214.333,326.167 215.167,325.833 216,325.5C 218.472,326.322 220.972,326.989 223.5,327.5C 223.5,329.167 223.5,330.833 223.5,332.5C 221.396,332.799 219.396,332.466 217.5,331.5C 218.879,330.137 218.713,329.137 217,328.5C 214.644,329.893 214.144,331.726 215.5,334C 219.5,334.667 223.5,334.667 227.5,334C 226.833,331 226.167,328 225.5,325C 220.511,324.501 215.511,324.334 210.5,324.5C 222.526,323.805 234.693,323.138 247,322.5C 251.98,323.093 256.814,323.76 261.5,324.5 Z"/></g>
<g><path style="opacity:1" fill="#eec8a2" d="M 269.5,331.5 C 442.833,332.167 442.833,332.833 269.5,333.5C 269.5,332.833 269.5,332.167 269.5,331.5 Z"/></g>
<g><path style="opacity:1" fill="#f3e8ce" d="M 262.5,327.5 C 262.5,328.5 262.5,329.5 262.5,330.5C 264.903,330.448 267.236,330.781 269.5,331.5C 269.5,332.167 269.5,332.833 269.5,333.5C 268.244,333.904 267.077,334.571 266,335.5C 265.228,335.355 264.561,335.022 264,334.5C 263.51,335.793 263.343,337.127 263.5,338.5C 260.833,338.5 258.167,338.5 255.5,338.5C 253.444,337.784 251.277,337.117 249,336.5C 248.502,333.518 248.335,330.518 248.5,327.5C 252.167,327.5 255.833,327.5 259.5,327.5C 259.5,329.167 259.5,330.833 259.5,332.5C 257.396,332.799 255.396,332.466 253.5,331.5C 257.457,330.461 257.457,329.461 253.5,328.5C 250.403,329.519 249.737,331.519 251.5,334.5C 254.768,335.487 258.102,335.82 261.5,335.5C 261.194,332.615 261.527,329.948 262.5,327.5 Z"/></g>
<g><path style="opacity:1" fill="#f9eeda" d="M 210.5,330.5 C 210.5,333.167 210.5,335.833 210.5,338.5C 214.702,338.183 218.702,338.517 222.5,339.5C 217.821,339.666 213.155,339.499 208.5,339C 207.833,337.667 207.167,336.333 206.5,335C 163.478,334.177 120.478,334.344 77.5,335.5C 74.8152,335.292 74.1485,334.125 75.5,332C 76.7932,331.51 78.1266,331.343 79.5,331.5C 122.997,330.501 166.663,330.168 210.5,330.5 Z"/></g>
<g><path style="opacity:1" fill="#eec8a2" d="M 79.5,331.5 C 122.172,331.167 164.839,331.5 207.5,332.5C 186.167,332.833 164.833,333.167 143.5,333.5C 121.823,333.5 100.489,332.833 79.5,331.5 Z"/></g>
<g><path style="opacity:1" fill="#e5d4a9" d="M 210.5,324.5 C 215.511,324.334 220.511,324.501 225.5,325C 226.167,328 226.833,331 227.5,334C 223.5,334.667 219.5,334.667 215.5,334C 214.144,331.726 214.644,329.893 217,328.5C 218.713,329.137 218.879,330.137 217.5,331.5C 219.396,332.466 221.396,332.799 223.5,332.5C 223.5,330.833 223.5,329.167 223.5,327.5C 220.972,326.989 218.472,326.322 216,325.5C 215.167,325.833 214.333,326.167 213.5,326.5C 212.583,329.758 212.249,333.091 212.5,336.5C 217.833,336.5 223.167,336.5 228.5,336.5C 228.207,332.563 228.54,328.73 229.5,325C 234.155,324.501 238.821,324.334 243.5,324.5C 243.5,327.833 243.5,331.167 243.5,334.5C 239.833,334.5 236.167,334.5 232.5,334.5C 232.051,332.023 232.717,330.023 234.5,328.5C 235.429,329.689 235.762,331.022 235.5,332.5C 237.5,332.5 239.5,332.5 241.5,332.5C 241.5,330.5 241.5,328.5 241.5,326.5C 238.15,326.335 234.817,326.502 231.5,327C 230.549,330.057 230.216,333.223 230.5,336.5C 236.176,336.666 241.843,336.499 247.5,336C 246.54,332.27 246.207,328.437 246.5,324.5C 251.5,324.5 256.5,324.5 261.5,324.5C 262.404,325.209 262.737,326.209 262.5,327.5C 261.527,329.948 261.194,332.615 261.5,335.5C 258.102,335.82 254.768,335.487 251.5,334.5C 249.737,331.519 250.403,329.519 253.5,328.5C 257.457,329.461 257.457,330.461 253.5,331.5C 255.396,332.466 257.396,332.799 259.5,332.5C 259.5,330.833 259.5,329.167 259.5,327.5C 255.833,327.5 252.167,327.5 248.5,327.5C 248.335,330.518 248.502,333.518 249,336.5C 251.277,337.117 253.444,337.784 255.5,338.5C 244.581,339.477 233.581,339.81 222.5,339.5C 218.702,338.517 214.702,338.183 210.5,338.5C 210.5,335.833 210.5,333.167 210.5,330.5C 210.5,328.5 210.5,326.5 210.5,324.5 Z"/></g>
</svg>
